<?xml version="1.0" encoding="utf-8"?>
<!-- Generator: Adobe Illustrator 16.0.4, SVG Export Plug-In . SVG Version: 6.00 Build 0)  -->
<!DOCTYPE svg PUBLIC "-//W3C//DTD SVG 1.1//EN" "http://www.w3.org/Graphics/SVG/1.1/DTD/svg11.dtd">
<svg version="1.1" id="Layer_1" xmlns="http://www.w3.org/2000/svg" xmlns:xlink="http://www.w3.org/1999/xlink" x="0px" y="0px"
	 width="500px" height="500px" viewBox="0 0 500 500" enable-background="new 0 0 500 500" xml:space="preserve">
<g>
	<path fill="#FFFFFF" stroke="#000000" stroke-width="3" stroke-miterlimit="10" d="M466.5,361.5c0,8.284-6.716,15-15,15h-374
		c-8.284,0-15-6.716-15-15v-229c0-8.284,6.716-15,15-15h374c8.284,0,15,6.716,15,15V361.5z"/>
	<rect x="63.5" y="148.5" stroke="#000000" stroke-miterlimit="10" width="404" height="53"/>
</g>
<g>
	<path fill="#FFFFFF" stroke="#000000" stroke-width="3" stroke-miterlimit="10" d="M451.5,378.5c0,8.284-6.716,15-15,15h-374
		c-8.284,0-15-6.716-15-15v-229c0-8.284,6.716-15,15-15h374c8.284,0,15,6.716,15,15V378.5z"/>
	<rect x="48.5" y="165.5" stroke="#000000" stroke-miterlimit="10" width="404" height="53"/>
</g>
<g>
	<path fill="#FFFFFF" stroke="#000000" stroke-width="3" stroke-miterlimit="10" d="M435.5,395.5c0,8.284-6.716,15-15,15h-374
		c-8.284,0-15-6.716-15-15v-229c0-8.284,6.716-15,15-15h374c8.284,0,15,6.716,15,15V395.5z"/>
	<rect x="32.5" y="182.5" stroke="#000000" stroke-miterlimit="10" width="404" height="53"/>
</g>
</svg>
