<?xml version="1.0" encoding="utf-8"?>
<!-- Generator: Adobe Illustrator 16.0.4, SVG Export Plug-In . SVG Version: 6.00 Build 0)  -->
<!DOCTYPE svg PUBLIC "-//W3C//DTD SVG 1.1//EN" "http://www.w3.org/Graphics/SVG/1.1/DTD/svg11.dtd">
<svg version="1.1" id="Layer_1" xmlns="http://www.w3.org/2000/svg" xmlns:xlink="http://www.w3.org/1999/xlink" x="0px" y="0px"
	 width="500px" height="500px" viewBox="0 0 500 500" enable-background="new 0 0 500 500" xml:space="preserve">
<path fill="#B4E1ED" stroke="#000000" stroke-miterlimit="10" d="M250.656,420.616c76.45,0,142.366-130.522,142.366-231.731
	S326.258,49.5,249.809,49.5h0.383c-76.449,0-143.213,38.177-143.213,139.385s65.917,231.812,142.366,231.812L250.656,420.616z"/>
<path fill="#F7EADF" stroke="#000000" stroke-miterlimit="10" d="M250.167,237.908c35.549,0,90.382-28.785,105.972-55.17
	c15.591-26.385,8.396-79.297-29.984-100.885C287.779,60.264,250.167,98.5,250.167,98.5h-0.335c0,0-37.612-38.236-75.99-16.647
	c-38.378,21.588-45.573,74.429-29.982,100.814c15.59,26.386,70.423,55.205,105.973,55.205"/>
<g>
	<path fill="#FFD150" stroke="#000000" stroke-miterlimit="10" d="M229.915,136.933c5.576,15.425-3.106,28.205-18.532,33.78
		c-15.425,5.576-31.753,1.838-37.329-13.588c-5.576-15.425,2.408-32.451,17.834-38.026
		C207.314,113.523,224.339,121.507,229.915,136.933z"/>
	<circle stroke="#000000" stroke-miterlimit="10" cx="195.966" cy="150.312" r="20.402"/>
	<path fill="#FFFFFF" stroke="#000000" stroke-miterlimit="10" d="M177.489,157.749c3.226,3.759,11.688-0.841,15.831-4.396
		c4.143-3.557,9.097-10.825,5.87-14.584c-3.227-3.76-13.412-2.587-17.555,0.97C177.492,143.293,174.262,153.988,177.489,157.749z"/>
</g>
<g>
	<path fill="#FFD150" stroke="#000000" stroke-miterlimit="10" d="M324.915,136.933c5.576,15.425-3.106,28.205-18.532,33.78
		c-15.425,5.576-31.752,1.838-37.328-13.588c-5.576-15.425,2.408-32.451,17.834-38.026
		C302.314,113.523,319.34,121.507,324.915,136.933z"/>
	<circle stroke="#000000" stroke-miterlimit="10" cx="290.966" cy="150.312" r="20.401"/>
	<path fill="#FFFFFF" stroke="#000000" stroke-miterlimit="10" d="M272.488,157.749c3.227,3.759,11.688-0.841,15.832-4.396
		c4.143-3.557,9.096-10.825,5.869-14.584c-3.227-3.76-13.412-2.587-17.555,0.97C272.492,143.293,269.262,153.988,272.488,157.749z"
		/>
</g>
<path fill="#FFD150" stroke="#000000" stroke-miterlimit="10" d="M267.277,188.661c0,7.682-10.11,26.414-17.833,26.414
	c-8.277,0-17.833-18.731-17.833-26.414s7.984-10.91,17.833-10.91S267.277,180.979,267.277,188.661z"/>
<path fill="#F7EADF" stroke="#000000" stroke-miterlimit="10" d="M212.597,400.671c0,0-16.218-17.396-35.583-3.419
	c-15.426,11.134-10.916,26.298-10.916,26.298l18.33-11.555c0,0-5.929,7.342-7.152,10.071c-1.675,3.74-4.44,15.807-4.44,15.807
	s11.055-8.92,14.826-11.693c3.495-2.569,12.853-6.375,12.853-6.375s-4.592,10.154-5.45,12.545c-1.164,3.244-1.71,13.983-1.71,13.983
	s11.308-4.79,17.751-12.441C217.078,426.8,224.417,412.115,212.597,400.671z"/>
<path fill="#F7EADF" stroke="#000000" stroke-miterlimit="10" d="M282.789,401.671c0,0,16.219-17.396,35.583-3.419
	c15.427,11.134,10.916,26.298,10.916,26.298l-18.33-11.555c0,0,5.929,7.342,7.151,10.071c1.676,3.74,4.441,15.807,4.441,15.807
	s-11.056-8.92-14.826-11.693c-3.496-2.569-12.854-6.375-12.854-6.375s4.592,10.154,5.45,12.545c1.164,3.244,1.71,13.983,1.71,13.983
	s-11.307-4.79-17.75-12.441C278.309,427.8,270.971,413.115,282.789,401.671z"/>
<g>
	<path fill="none" stroke="#000000" stroke-miterlimit="10" d="M262.442,275c0,13.035-5.57,23.602-12.442,23.602
		S237.557,288.035,237.557,275"/>
	<path fill="none" stroke="#000000" stroke-miterlimit="10" d="M228.885,275c0,13.035-5.571,23.602-12.442,23.602
		C209.571,298.602,204,288.035,204,275"/>
	<path fill="none" stroke="#000000" stroke-miterlimit="10" d="M296,275c0,13.035-5.571,23.602-12.442,23.602
		c-6.872,0-12.443-10.566-12.443-23.602"/>
</g>
<g>
	<path fill="none" stroke="#000000" stroke-miterlimit="10" d="M247.442,306c0,13.035-5.57,23.602-12.442,23.602
		S222.557,319.035,222.557,306"/>
	<path fill="none" stroke="#000000" stroke-miterlimit="10" d="M213.885,306c0,13.035-5.571,23.602-12.442,23.602
		C194.571,329.602,189,319.035,189,306"/>
	<path fill="none" stroke="#000000" stroke-miterlimit="10" d="M281,306c0,13.035-5.571,23.602-12.442,23.602
		c-6.872,0-12.443-10.566-12.443-23.602"/>
	<path fill="none" stroke="#000000" stroke-miterlimit="10" d="M314,306c0,13.035-5.571,23.602-12.442,23.602
		c-6.872,0-12.443-10.566-12.443-23.602"/>
</g>
<g>
	<path fill="none" stroke="#000000" stroke-miterlimit="10" d="M262.442,341c0,13.035-5.57,23.602-12.442,23.602
		S237.557,354.035,237.557,341"/>
	<path fill="none" stroke="#000000" stroke-miterlimit="10" d="M228.885,341c0,13.035-5.571,23.602-12.442,23.602
		C209.571,364.602,204,354.035,204,341"/>
	<path fill="none" stroke="#000000" stroke-miterlimit="10" d="M296,341c0,13.035-5.571,23.602-12.442,23.602
		c-6.872,0-12.443-10.566-12.443-23.602"/>
</g>
<path fill="#F7EADF" stroke="#000000" stroke-miterlimit="10" d="M175.564,255.666c0,0,4.769,18.001,15.436,27.334
	s17.333,12,17.333,12s-10,13.334-23.333,6s-17.333-13.334-17.333-13.334s4.629,20.431,14,24c7,2.666,14.299,1.334,14.299,1.334
	s-2.299,10.667-16.299,10s-15.333-4.667-15.333-4.667s3.222,12,7.944,14s8.722,1.333,8.722,1.333s-8.976,10.739-20,6
	c-17.239-7.41-29.431-33.689-29.431-33.689"/>
<path fill="#F7EADF" stroke="#000000" stroke-miterlimit="10" d="M324.338,255.666c0,0-4.769,18.001-15.436,27.334
	s-17.334,12-17.334,12s10.001,13.334,23.334,6s17.333-13.334,17.333-13.334s-4.629,20.431-14,24c-7,2.666-14.299,1.334-14.299,1.334
	s2.299,10.667,16.299,10s15.333-4.667,15.333-4.667s-3.222,12-7.943,14c-4.723,2-8.723,1.333-8.723,1.333s8.977,10.739,20,6
	c17.238-7.41,29.431-33.689,29.431-33.689"/>
<g>
	<path fill="none" stroke="#000000" stroke-miterlimit="10" d="M247.442,372c0,13.035-5.57,23.602-12.442,23.602
		S222.557,385.035,222.557,372"/>
	<path fill="none" stroke="#000000" stroke-miterlimit="10" d="M281,372c0,13.035-5.571,23.602-12.442,23.602
		c-6.872,0-12.443-10.566-12.443-23.602"/>
</g>
</svg>
