<?xml version="1.0" encoding="utf-8"?>
<!-- Generator: Adobe Illustrator 16.0.4, SVG Export Plug-In . SVG Version: 6.00 Build 0)  -->
<!DOCTYPE svg PUBLIC "-//W3C//DTD SVG 1.1//EN" "http://www.w3.org/Graphics/SVG/1.1/DTD/svg11.dtd">
<svg version="1.1" id="Layer_1" xmlns="http://www.w3.org/2000/svg" xmlns:xlink="http://www.w3.org/1999/xlink" x="0px" y="0px"
	 width="500px" height="500px" viewBox="0 0 500 500" enable-background="new 0 0 500 500" xml:space="preserve">
<path fill="#FFE9F2" stroke="#000000" stroke-miterlimit="10" d="M256.494,216.762c0,0,17.523,3.079,30.596-4.846
	c13.072-7.925,68.163-51.481,77.825-99.094c9.665-47.611,4.6-56.957,4.6-56.957s12.029,4.997,13.041,12.305
	c1.015,7.309-0.929,11.921-0.929,11.921s5.938,0.547,9.612-3.722c3.063-3.559,3.742-5.056,4.995-10.59c0,0,5.988,8.53,1.86,15.221
	c-3.347,5.425-4.945,6.032-4.945,6.032s4.845,3.912,10.64,1.148c4.7-2.24,7.008-8.466,7.008-8.466s3.676,9.496-3.23,17.333
	c-5.728,6.498-11.838,7.474-11.838,7.474s10.086,5.875,17.798,2.336c7.713-3.538,7.872-8.279,7.872-8.279s0.679,16.295-7.844,21.622
	c-6.827,4.267-9.851,5.945-9.851,5.945s3.634,6.016,13.565,4.766c6.674-0.839,11.008-6.315,11.008-6.315s1.686,11.621-13.035,20.763
	c-7.796,4.84-12.198,5.207-12.198,5.207s7.92,6.271,17.812,1.942c9.894-4.33,9.841-5.683,9.841-5.683s-3.253,17.361-19.466,22.644
	c-3.032,0.989-8.115,1.389-8.115,1.389s21.519,10.544,32.234,9.425c3.343-0.35,16.518-4.272,16.518-4.272
	s-12.34,18.889-41.549,17.118c-29.208-1.77,10.382,6.518,10.382,6.518s-16.001,14.381-33.758,13.368
	c-17.755-1.014-34.375-0.779-34.375-0.779l19.863,6.835c0,0-24.151,14.788-51.768,11.602c-27.615-3.188-58.64,0.974-58.64,0.974"/>
<path fill="#FFD150" stroke="#000000" stroke-miterlimit="10" d="M366.765,238.659l-16.744,3.014l7.454,1.912l-3.089,11.22
	l9.482-6.817l-3.328,12.973l21.458-13.845l2.29,13.833l2.189-8.535c0,0,3.391,14.578,9.98,26.841
	c4.027,7.493,14.83,17.077,17.567,21.608c7.85,12.993,6.521,16.453,6.521,16.453s2.935-8.61,2.725-12.392
	c-0.239-4.29-4.501-19.891-4.501-19.891s13.091,14.117,16.085,28.352c2.135,10.15-1.375,20.398-1.375,20.398
	s7.843-6.598,9.282-10.347c2.348-6.115,4.381-13.445,4.381-13.445s5.041,6.912,5.694,14.129c1.154,12.755-3.546,22-3.546,22
	s11.094-9.223,13.785-19.763c3.423-13.404-2.648-30.239-2.648-30.239s5.577,8.865,7.722,10.463c2.479,1.848,9.842,6.962,9.842,6.962
	s-9.811-15.145-13.917-26.865c-5.229-14.927-9.002-31.296-16.357-36.628c-22.856-16.574-37.495-20.798-51.032-22.306
	C383.812,226.311,366.765,238.659,366.765,238.659z"/>
<polygon fill="#5DBFC1" stroke="#000000" stroke-miterlimit="10" points="90.144,167.496 63.258,97.321 117.833,139.706 "/>
<polygon fill="#FFFFFF" stroke="#000000" stroke-miterlimit="10" points="77.517,108.395 73.456,123.938 78.889,138.121 
	85.539,114.625 "/>
<polygon fill="#FFFFFF" stroke="#000000" stroke-miterlimit="10" points="92.969,120.395 83.456,149.938 88.889,164.121 
	101.539,127.402 "/>
<path fill="#FFE9F2" stroke="#000000" stroke-miterlimit="10" d="M214.537,223.273c0,0-25.709-152.711-112.198-76.707
	c-75.562,66.403-63.402,103.697-51.52,111.053c24.042,14.885,105.33-24.042,105.33-24.042s-19.34,138.521,1.806,148.044
	c27.96,12.594,55.438-82.271,55.438-82.271s41.84,9.398,57.244,10.934c18.478,1.842,78.28,2.565,78.28,2.565
	s-21.19,89.635-1.573,89.945c35.491,0.563,88.369-127.369,53.81-160.059C358.79,202.666,214.537,223.273,214.537,223.273z"/>
<path fill="#FFD150" stroke="#000000" stroke-miterlimit="10" d="M94.914,147.5l-17.396,9h8.655l-0.164,14.224l8.491-11.333v16.621
	l19.573-23.259l6.427,15.921V157.74c0,0,7.633,16.478,18.238,29.185c6.48,7.764,20.86,15.954,25.108,20.556
	c12.182,13.197,11.667,17.764,11.667,17.764s0.773-11.252-0.513-15.733c-1.458-5.083-10.469-22.521-10.469-22.521
	s18.202,12.933,25.439,29.118c5.163,11.543,4.202,24.942,4.202,24.942s6.697-10.349,7.218-15.298
	c0.849-8.075,1.015-17.512,1.015-17.512s7.422,6.754,10.15,15.227c4.822,14.974,2.285,27.536,2.285,27.536
	s9.507-14.505,9.494-28.005C224.316,205.833,213,187.471,213,187.471s8.551,8.936,11.333,10.195C227.551,199.123,237,203,237,203
	c0,0-14.918-15.179-22.667-28c-9.868-16.33-18.551-34.841-28.053-38.983c-29.529-12.874-46.656-13.331-61.823-10.968
	C110.034,127.295,94.914,147.5,94.914,147.5z"/>
<g>
	<defs>
		<path id="SVGID_1_" d="M92.722,204.248c0,0,0.607-12.946,8.574-15.872s19.358,0,19.358,0S117.269,200.744,109.75,203
			S92.722,204.248,92.722,204.248z"/>
	</defs>
	<use xlink:href="#SVGID_1_"  overflow="visible" fill="#FFFFFF"/>
	<clipPath id="SVGID_2_">
		<use xlink:href="#SVGID_1_"  overflow="visible"/>
	</clipPath>
	<circle clip-path="url(#SVGID_2_)" fill="#5DBFC1" stroke="#000000" stroke-miterlimit="10" cx="105.125" cy="195.501" r="9.125"/>
	<use xlink:href="#SVGID_1_"  overflow="visible" fill="none" stroke="#000000" stroke-miterlimit="10"/>
</g>
<path fill="none" stroke="#000000" stroke-miterlimit="10" d="M55.478,259.661c0,0,16.767-0.985,20.978-9.656s0-11.338,0-11.338"/>
<path fill="#FFE9F2" stroke="#000000" stroke-miterlimit="10" d="M242.329,219.866c0,0,17.714-1.664,28.226-12.762
	s52.127-67.671,48.857-116.144c-3.267-48.473-10.624-56.146-10.624-56.146s12.923,1.638,15.831,8.418
	c2.911,6.781,2.256,11.743,2.256,11.743s5.872-1.042,8.286-6.131c2.013-4.242,2.272-5.865,2.018-11.534c0,0,8.03,6.643,5.818,14.188
	c-1.793,6.117-3.174,7.125-3.174,7.125s5.706,2.491,10.564-1.706c3.939-3.403,4.52-10.018,4.52-10.018s6.056,8.186,1.467,17.57
	c-3.805,7.781-9.44,10.338-9.44,10.338s11.28,2.999,17.782-2.452c6.502-5.452,5.403-10.066,5.403-10.066s4.963,15.536-1.848,22.926
	c-5.457,5.92-7.929,8.338-7.929,8.338s5.096,4.841,14.343,1.01c6.214-2.574,8.946-9.001,8.946-9.001s4.698,10.762-7.082,23.47
	c-6.238,6.729-10.388,8.247-10.388,8.247s9.297,3.955,17.692-2.836c8.395-6.791,7.988-8.082,7.988-8.082s1.452,17.604-12.788,26.984
	c-2.663,1.755-7.458,3.485-7.458,3.485s23.54,4.479,33.579,0.567c3.131-1.221,14.8-8.487,14.8-8.487s-6.907,21.479-35.544,27.494
	c-28.638,6.016,11.734,3.541,11.734,3.541s-11.63,18.1-29.021,21.817c-17.393,3.717-33.357,8.337-33.357,8.337l20.962,1.34
	c0,0-19.381,20.647-46.857,24.876c-27.475,4.227-56.295,16.443-56.295,16.443"/>
</svg>
