<?xml version="1.0" encoding="utf-8"?>
<!-- Generator: Adobe Illustrator 16.0.4, SVG Export Plug-In . SVG Version: 6.00 Build 0)  -->
<!DOCTYPE svg PUBLIC "-//W3C//DTD SVG 1.1//EN" "http://www.w3.org/Graphics/SVG/1.1/DTD/svg11.dtd">
<svg version="1.1" id="Layer_1" xmlns="http://www.w3.org/2000/svg" xmlns:xlink="http://www.w3.org/1999/xlink" x="0px" y="0px"
	 width="500px" height="500px" viewBox="0 0 500 500" enable-background="new 0 0 500 500" xml:space="preserve">
<circle fill="#FFFF00" stroke="#000000" stroke-width="2" stroke-miterlimit="10" cx="197.707" cy="164.699" r="41.729"/>
<circle fill="#FFFF00" stroke="#000000" stroke-width="2" stroke-miterlimit="10" cx="282.293" cy="177.105" r="30.075"/>
<path fill="#8CC63F" stroke="#000000" stroke-width="2" stroke-miterlimit="10" d="M424.5,410c0,8.284-6.716,15-15,15h-319
	c-8.284,0-15-6.716-15-15l22-220c0-8.284,6.716-15,15-15h278c8.284,0,15,6.716,15,15L424.5,410z"/>
<g>
	<path fill="#8CC63F" d="M414.5,400c0,8.284-6.716,15-15,15h-299c-8.284,0-15-6.716-15-15l22-200c0-8.284,6.716-15,15-15h258
		c8.284,0,15,6.716,15,15L414.5,400z"/>
	<path fill="none" stroke="#000000" stroke-width="2" stroke-miterlimit="10" stroke-dasharray="11.9697,11.9697" d="M414.5,400
		c0,8.284-6.716,15-15,15h-299c-8.284,0-15-6.716-15-15l22-200c0-8.284,6.716-15,15-15h258c8.284,0,15,6.716,15,15L414.5,400z"/>
</g>
<circle fill="#FFFF00" stroke="#000000" stroke-width="2" stroke-miterlimit="10" cx="261.459" cy="106.805" r="33.459"/>
<path fill="#009245" stroke="#000000" stroke-width="2" stroke-miterlimit="10" d="M150.481,175"/>
<path fill="#FCEE21" stroke="#000000" stroke-width="2" stroke-miterlimit="10" d="M159.232,175c0,0-1.606-31.825,18.009-34.737
	c19.736-2.93,71.211-7.143,71.211-7.143l6.854,13.91c0,0-67.306,0-75.347,8.47c-4.783,5.038-2.717,19.5-2.717,19.5H159.232z"/>
<path fill="#FCEE21" stroke="#000000" stroke-width="2" stroke-miterlimit="10" d="M342.273,175c0,0,1.605-31.825-18.009-34.737
	c-19.735-2.93-71.211-7.143-71.211-7.143l-6.854,13.91c0,0,67.306,0,75.347,8.47c4.783,5.038,2.718,19.5,2.718,19.5H342.273z"/>
<circle fill="#FCEE21" stroke="#000000" stroke-width="2" stroke-miterlimit="10" cx="250" cy="140.949" r="11.281"/>
</svg>
