<?xml version="1.0" encoding="utf-8"?>
<!-- Generator: Adobe Illustrator 16.0.4, SVG Export Plug-In . SVG Version: 6.00 Build 0)  -->
<!DOCTYPE svg PUBLIC "-//W3C//DTD SVG 1.1//EN" "http://www.w3.org/Graphics/SVG/1.1/DTD/svg11.dtd">
<svg version="1.1" id="Layer_1" xmlns="http://www.w3.org/2000/svg" xmlns:xlink="http://www.w3.org/1999/xlink" x="0px" y="0px"
	 width="500px" height="500px" viewBox="0 0 500 500" enable-background="new 0 0 500 500" xml:space="preserve">
<path fill="#B4E1ED" stroke="#0098FF" stroke-width="2" stroke-miterlimit="10" d="M288.997,191.134
	C255.84,167.199,205.301,138,105.871,216.932c-39.723,31.534-47.586,68.951-41.592,83.984
	c15.053,37.751,167.569,26.919,224.042,14.386c30.319-6.729,55.239-29.776,79.222-50.77c22.14-19.38,49.286-54.588,63.766-44.451
	c16.846,11.792,3.262,30.863,9.054,31.829c5.113,0.853,23.168-17.089,13.032-40.771c-8.717-20.364-40.063-7.014-40.063-7.014
	s10.137-36.201-11.584-47.784c-16.263-8.673-40.545-7.359-40.205,1.994c0.492,13.617,46.02,7.822,35.86,40.48
	c-6.757,21.72-27.515,40.609-44.892,33.798C335.136,225.802,308.254,205.035,288.997,191.134z"/>
<path fill="#B4E1ED" stroke="#0098FF" stroke-width="2" stroke-miterlimit="10" d="M124.833,252.833
	c0,0,26.037-30.156,42.546-14.459c15.867,15.087,5.465,23.96,5.465,23.96"/>
<path fill="#B4E1ED" stroke="#0098FF" stroke-width="2" stroke-miterlimit="10" d="M89.445,318.602c0,0,18.146,0.812,25.888-2
	C128,312,128,301,128,301"/>
<path fill="#B4E1ED" stroke="#0098FF" stroke-width="2" stroke-miterlimit="10" d="M186.333,164.667c0,0,3.667-20-11.333-25.667
	s-24.333,2.333-24.333-7s9.718-15.333,18.859-14.667s24.808,9,24.141,25S186.333,164.667,186.333,164.667z"/>
<path fill="#B4E1ED" stroke="#0098FF" stroke-width="2" stroke-miterlimit="10" d="M198.971,159.173c0,0,4.708-17.667,27.333-18.188
	c18.003-0.415,19.233,13.511,15,16.333c-7,4.667-11.074-2.781-20.374-4C208.333,151.667,198.971,159.173,198.971,159.173z"/>
<path fill="#B4E1ED" stroke="#0098FF" stroke-width="2" stroke-miterlimit="10" d="M201.667,140.975c0,0,5.667-20.975-4.582-25.642
	c-13.003-5.921-13.759-9.333-14.093-13s6.615-7.882,15.978-4.333c13.19,5,12.198,19.284,12.202,21.617
	C211.189,128.333,201.667,140.975,201.667,140.975z"/>
</svg>
