<?xml version="1.0" encoding="utf-8"?>
<!-- Generator: Adobe Illustrator 16.0.4, SVG Export Plug-In . SVG Version: 6.00 Build 0)  -->
<!DOCTYPE svg PUBLIC "-//W3C//DTD SVG 1.1//EN" "http://www.w3.org/Graphics/SVG/1.1/DTD/svg11.dtd">
<svg version="1.1" id="Layer_1" xmlns="http://www.w3.org/2000/svg" xmlns:xlink="http://www.w3.org/1999/xlink" x="0px" y="0px"
	 width="2000px" height="2000px" viewBox="0 0 2000 2000" enable-background="new 0 0 2000 2000" xml:space="preserve">
<path fill="#EDAB5D" stroke="#000000" stroke-miterlimit="10" d="M1193.498,1655.73c0,0,243.377-41.852,330.386-290.877
	s6.001-510.051,0-681.068s-27.933-405.041,40.039-507.051s226.987-108.011,262.991-81.008c25.963,19.472,42.004,57.006,0,78.008
	s-145.941,17.413-183.341,73.512c-66.006,99.01-29.681,376.955-11.679,475.754s84.008,416.831-18.002,674.856
	s-384.865,354.035-384.865,354.035l-131.852-30.271l100.93-77.255"/>
<path fill="#F7EADF" stroke="#000000" stroke-miterlimit="10" d="M1563.923,176.734c67.972-102.01,226.987-108.011,262.991-81.008
	c25.963,19.472,42.004,57.006,0,78.008s-145.941,17.413-183.341,73.512l-5.68-43.07l-57.006,43.07l24.003-82.622L1563.923,176.734z"
	/>
<path fill="#EDAB5D" stroke="#000000" stroke-miterlimit="10" d="M1481.203,171.236c0,0,44.062,246.746-105.748,414.182
	C1225.645,752.852,986.83,388.527,986.83,388.527s27.315-155.605,185.939-217.291
	C1331.393,109.55,1481.203,171.236,1481.203,171.236z"/>
<path fill="#EDAB5D" stroke="#000000" stroke-miterlimit="10" d="M301.875,171.236c0,0-44.062,246.746,105.749,414.182
	c149.81,167.435,388.625-196.891,388.625-196.891s-27.316-155.605-185.94-217.291C451.685,109.55,301.875,171.236,301.875,171.236z"
	/>
<path fill="#EDAB5D" stroke="#000000" stroke-miterlimit="10" d="M1083.609,1113c0,0,158.227,376.281,122,508.25
	c-56,204-321,226.25-321,226.25H882c0,0-265-22.25-321-226.25c-36.227-131.969,122-508.125,122-508.125"/>
<polyline fill="#F7EADF" stroke="#000000" stroke-miterlimit="10" points="1053.555,1139.5 1101.305,1259.24 1077.18,1266.328 
	1101.055,1325.5 1077.055,1325.5 1091.277,1448.486 1041.5,1406.155 1041.5,1485.5 1023.055,1485.5 1035.277,1507.821 
	979.5,1487.681 979.5,1578.265 953.027,1535.237 941.453,1604.124 937.048,1630.35 923.051,1605.723 884.748,1721.5 883.305,1721.5 
	845,1605.723 831,1630.492 826.588,1604.194 815,1535.272 788.5,1578.265 788.5,1487.681 732.75,1507.821 745,1485.5 726.5,1485.5 
	726.5,1406.155 676.75,1448.486 691,1325.5 667,1325.5 690.875,1266.328 666.75,1259.316 714.5,1139.538 "/>
<path fill="#FFE9F2" stroke="#000000" stroke-miterlimit="10" d="M345,217.25c0,0,182-54.125,292,57.875
	s64.179,107.41,64.179,107.41L581,371.281l18,36.219h-90l46.609,35.5L419,511c0,0-70-76.824-74-153.412S345,217.25,345,217.25z"/>
<path fill="#EDAB5D" stroke="#000000" stroke-miterlimit="10" d="M884.615,1184.615c0,0,0,0,128.91-13.094
	C1145.68,1158.099,1500,923.152,1500,923.152s-51.751-47.692-163.704-283.228C1201.875,357.112,937.484,346.5,884.615,346.5H885
	c-52.87,0-317.259,10.612-451.681,293.424C321.366,875.46,269.616,923.058,269.616,923.058s354.319,234.994,486.474,248.417
	C885,1184.568,885,1184.592,885,1184.592L884.615,1184.615z"/>
<path fill="#FFE9F2" stroke="#000000" stroke-miterlimit="10" d="M1426.865,218.25c0,0-182-54.125-292,57.875
	s-64.179,107.41-64.179,107.41l120.179-11.253l-18,36.219h90l-46.609,35.5l136.609,68c0,0,70-76.824,74-153.412
	S1426.865,218.25,1426.865,218.25z"/>
<g>
	<path fill="#F7EADF" stroke="#000000" stroke-miterlimit="10" d="M495.042,1837.8c-49.109-18.416-15.684-101.022,40.593-114.399
		c32.313-7.682,143.922,9.226,154.993,56.277c11.071,47.051-7.38,50.741-33.212,58.122S524.565,1848.871,495.042,1837.8z"/>
	<path fill="#F7EADF" stroke="#000000" stroke-miterlimit="10" d="M636.042,1854.8c-49.109-18.416-15.684-101.022,40.593-114.399
		c32.313-7.682,143.922,9.226,154.993,56.277c11.071,47.051-7.38,50.741-33.212,58.122S665.565,1865.871,636.042,1854.8z"/>
</g>
<g>
	<defs>
		<path id="SVGID_1_" d="M965.324,793.153c0,0,23.344-111.092,96.322-125.249c72.977-14.157,167.381,27.059,167.381,27.059
			s-46.562,102.204-114.724,111.201C1046.142,815.159,965.324,793.153,965.324,793.153z"/>
	</defs>
	<use xlink:href="#SVGID_1_"  overflow="visible" fill="#FFFFFF"/>
	<clipPath id="SVGID_2_">
		<use xlink:href="#SVGID_1_"  overflow="visible"/>
	</clipPath>
	
		<circle clip-path="url(#SVGID_2_)" fill="#FFD150" stroke="#000000" stroke-miterlimit="10" cx="1084.794" cy="734.863" r="79.923"/>
	<use xlink:href="#SVGID_1_"  overflow="visible" fill="none" stroke="#000000" stroke-miterlimit="10"/>
</g>
<g>
	<defs>
		<path id="SVGID_3_" d="M810.027,793.153c0,0-23.344-111.092-96.322-125.249c-72.977-14.157-167.381,27.059-167.381,27.059
			s46.562,102.204,114.724,111.201C729.21,815.159,810.027,793.153,810.027,793.153z"/>
	</defs>
	<use xlink:href="#SVGID_3_"  overflow="visible" fill="#FFFFFF"/>
	<clipPath id="SVGID_4_">
		<use xlink:href="#SVGID_3_"  overflow="visible"/>
	</clipPath>
	
		<circle clip-path="url(#SVGID_4_)" fill="#FFD150" stroke="#000000" stroke-miterlimit="10" cx="690.557" cy="734.863" r="79.923"/>
	<use xlink:href="#SVGID_3_"  overflow="visible" fill="none" stroke="#000000" stroke-miterlimit="10"/>
</g>
<ellipse fill="#4D4D4D" stroke="#000000" stroke-miterlimit="10" cx="711.549" cy="737.207" rx="33.373" ry="64.248"/>
<ellipse fill="#4D4D4D" stroke="#000000" stroke-miterlimit="10" cx="1101.549" cy="736.207" rx="33.373" ry="64.248"/>
<ellipse fill="#FFFFFF" cx="676.394" cy="697.479" rx="35.155" ry="25.521"/>
<ellipse fill="#FFFFFF" cx="1075.394" cy="697.479" rx="35.155" ry="25.521"/>
<path fill="#BC5780" d="M883.696,964.875c0,0,0,0,14-1.875s76-41.937,60.973-55.937S883.696,915,883.696,915H885
	c0,0-59.945-21.937-74.973-7.937S857,961.156,871,963.031s14,1.859,14,1.859"/>
<g>
	<path fill="#F7EADF" stroke="#000000" stroke-miterlimit="10" d="M1268.092,1839.8c49.109-18.416,15.684-101.022-40.593-114.399
		c-32.313-7.682-143.922,9.226-154.993,56.277c-11.07,47.051,7.381,50.741,33.213,58.122S1238.57,1850.871,1268.092,1839.8z"/>
	<path fill="#F7EADF" stroke="#000000" stroke-miterlimit="10" d="M1127.092,1856.8c49.109-18.416,15.684-101.022-40.593-114.399
		c-32.313-7.682-143.922,9.226-154.993,56.277c-11.07,47.051,7.381,50.741,33.213,58.122S1097.57,1867.871,1127.092,1856.8z"/>
</g>
</svg>
