<?xml version="1.0" encoding="utf-8"?>
<!-- Generator: Adobe Illustrator 16.0.4, SVG Export Plug-In . SVG Version: 6.00 Build 0)  -->
<!DOCTYPE svg PUBLIC "-//W3C//DTD SVG 1.1//EN" "http://www.w3.org/Graphics/SVG/1.1/DTD/svg11.dtd">
<svg version="1.1" id="Layer_1" xmlns="http://www.w3.org/2000/svg" xmlns:xlink="http://www.w3.org/1999/xlink" x="0px" y="0px"
	 width="500px" height="500px" viewBox="0 0 500 500" enable-background="new 0 0 500 500" xml:space="preserve">
<path fill="#EDAB5D" stroke="#000000" stroke-miterlimit="10" d="M296.365,409.506c0,0,56.833-9.772,77.152-67.927
	c20.318-58.153,1.402-119.109,0-159.046c-1.4-39.937-6.523-94.587,9.351-118.409c15.873-23.822,53.007-25.223,61.414-18.917
	c6.063,4.547,9.809,13.312,0,18.216c-9.809,4.905-34.081,4.067-42.814,17.167c-15.413,23.121-6.93,88.028-2.727,111.1
	c4.203,23.071,19.617,97.339-4.203,157.594c-23.822,60.256-89.876,82.677-89.876,82.677l-30.791-7.069l23.569-18.04"/>
<path fill="#F7EADF" stroke="#000000" stroke-miterlimit="10" d="M382.868,64.125c15.873-23.822,53.007-25.223,61.414-18.917
	c6.063,4.547,9.809,13.312,0,18.216c-9.809,4.905-34.081,4.067-42.814,17.167l-1.326-10.058L386.83,80.591l5.605-19.295
	L382.868,64.125z"/>
<path fill="#EDAB5D" stroke="#000000" stroke-miterlimit="10" d="M363.551,62.84c0,0,10.29,57.621-24.693,96.722
	c-34.985,39.1-90.755-45.979-90.755-45.979s6.379-36.337,43.421-50.743C328.566,48.435,363.551,62.84,363.551,62.84z"/>
<path fill="#EDAB5D" stroke="#000000" stroke-miterlimit="10" d="M88.149,62.84c0,0-10.29,57.621,24.694,96.722
	c34.984,39.1,90.753-45.979,90.753-45.979s-6.379-36.337-43.421-50.743C123.134,48.435,88.149,62.84,88.149,62.84z"/>
<path fill="#EDAB5D" stroke="#000000" stroke-miterlimit="10" d="M270.703,282.766c0,0,36.949,87.976,28.49,118.793
	c-13.078,47.64-74.961,52.941-74.961,52.941h-0.609c0,0-61.884-5.302-74.962-52.941c-8.459-30.817,28.49-118.711,28.49-118.711"/>
<polyline fill="#F7EADF" stroke="#000000" stroke-miterlimit="10" points="263.685,288.953 274.835,316.916 269.201,319.127 
	274.777,333.5 269.173,333.5 272.809,361.664 261.5,351.225 261.5,369.5 256.562,369.5 259.471,374.84 246.5,370.263 246.5,391.416 
	240.264,381.367 237.534,397.454 236.49,403.579 233.216,397.646 224.264,424.5 223.927,424.5 214.982,397.646 211.712,403.521 
	210.682,397.426 208.332,381.354 202.5,391.416 202.5,370.263 189.125,374.84 191.629,369.5 187.5,369.5 187.5,351.225 
	175.787,361.664 179.019,333.5 173.414,333.5 178.99,319.127 173.356,317.211 184.507,289.103 "/>
<path fill="#FFE9F2" stroke="#000000" stroke-miterlimit="10" d="M98.22,73.585c0,0,42.501-12.639,68.189,13.516
	c25.688,26.155,14.987,25.083,14.987,25.083l-28.065-2.385l4.203,8.701h-21.017l10.885,8.047L115.5,142.305
	c0,0-16.346-18.001-17.281-35.886C97.286,88.534,98.22,73.585,98.22,73.585z"/>
<path fill="#EDAB5D" stroke="#000000" stroke-miterlimit="10" d="M224.233,299.489c0,0,0,0,30.104-3.058
	c30.86-3.135,113.604-58,113.604-58s-12.087-11.272-38.229-66.275C298.32,106.112,236.579,103.5,224.233,103.5h0.089
	c-12.346,0-74.087,2.612-105.478,68.656c-26.144,55.003-38.229,66.186-38.229,66.186s82.742,54.91,113.604,58.045
	c30.104,3.057,30.104,3.08,30.104,3.08L224.233,299.489z"/>
<path fill="#FFE9F2" stroke="#000000" stroke-miterlimit="10" d="M350.861,73.82c0,0-42.501-12.64-68.188,13.515
	c-25.688,26.155-14.987,25.083-14.987,25.083l28.064-2.501l-4.204,8.584h21.018l-10.884,8.164l31.901,15.816
	c0,0,16.347-17.972,17.28-35.857C351.795,88.738,350.861,73.82,350.861,73.82z"/>
<g>
	<path fill="#F7EADF" stroke="#000000" stroke-miterlimit="10" d="M133.259,452.023c-11.469-4.301-3.663-23.591,9.479-26.715
		c7.546-1.793,33.609,2.154,36.195,13.143c2.585,10.987-1.724,11.849-7.756,13.572C165.144,453.747,140.152,454.609,133.259,452.023
		z"/>
	<path fill="#F7EADF" stroke="#000000" stroke-miterlimit="10" d="M166.186,455.993c-11.469-4.301-3.663-23.591,9.479-26.714
		c7.545-1.794,33.609,2.153,36.194,13.141c2.585,10.988-1.724,11.85-7.756,13.573S173.079,458.58,166.186,455.993z"/>
</g>
<g>
	<defs>
		<path id="SVGID_1_" d="M243.08,208.073c0,0,5.451-25.943,22.494-29.249c17.042-3.306,39.088,6.319,39.088,6.319
			s-10.874,23.867-26.791,25.968C261.953,213.212,243.08,208.073,243.08,208.073z"/>
	</defs>
	<use xlink:href="#SVGID_1_"  overflow="visible" fill="#FFFFFF"/>
	<clipPath id="SVGID_2_">
		<use xlink:href="#SVGID_1_"  overflow="visible"/>
	</clipPath>
	
		<circle clip-path="url(#SVGID_2_)" fill="#FFD150" stroke="#000000" stroke-miterlimit="10" cx="270.979" cy="194.461" r="18.664"/>
	<use xlink:href="#SVGID_1_"  overflow="visible" fill="none" stroke="#000000" stroke-miterlimit="10"/>
</g>
<g>
	<defs>
		<path id="SVGID_3_" d="M206.814,208.073c0,0-5.451-25.943-22.493-29.249c-17.042-3.306-39.087,6.319-39.087,6.319
			s10.873,23.867,26.791,25.968C187.942,213.212,206.814,208.073,206.814,208.073z"/>
	</defs>
	<use xlink:href="#SVGID_3_"  overflow="visible" fill="#FFFFFF"/>
	<clipPath id="SVGID_4_">
		<use xlink:href="#SVGID_3_"  overflow="visible"/>
	</clipPath>
	
		<circle clip-path="url(#SVGID_4_)" fill="#FFD150" stroke="#000000" stroke-miterlimit="10" cx="178.916" cy="194.461" r="18.664"/>
	<use xlink:href="#SVGID_3_"  overflow="visible" fill="none" stroke="#000000" stroke-miterlimit="10"/>
</g>
<ellipse fill="#4D4D4D" stroke="#000000" stroke-miterlimit="10" cx="183.818" cy="195.008" rx="7.793" ry="15.003"/>
<ellipse fill="#4D4D4D" stroke="#000000" stroke-miterlimit="10" cx="274.892" cy="194.774" rx="7.793" ry="15.004"/>
<ellipse fill="#FFFFFF" cx="175.608" cy="185.731" rx="8.209" ry="5.96"/>
<ellipse fill="#FFFFFF" cx="268.784" cy="185.731" rx="8.21" ry="5.96"/>
<path fill="#BC5780" d="M224.019,248.175c0,0,0,0,3.27-0.438c3.27-0.438,17.747-10.057,14.238-13.326
	c-3.509-3.27-17.508,1.59-17.508,1.59h0.304c0,0-13.999-4.859-17.508-1.59c-3.509,3.27,10.969,12.765,14.239,13.202
	s3.27,0.5,3.27,0.5"/>
<g>
	<path fill="#F7EADF" stroke="#000000" stroke-miterlimit="10" d="M313.784,452.491c11.469-4.302,3.662-23.592-9.479-26.715
		c-7.546-1.794-33.609,2.153-36.194,13.142c-2.585,10.987,1.724,11.849,7.756,13.573
		C281.898,454.214,306.891,455.076,313.784,452.491z"/>
	<path fill="#F7EADF" stroke="#000000" stroke-miterlimit="10" d="M280.857,456.461c11.469-4.302,3.662-23.592-9.479-26.715
		c-7.546-1.794-33.609,2.153-36.194,13.142c-2.586,10.987,1.723,11.849,7.756,13.573
		C248.972,458.184,273.963,459.047,280.857,456.461z"/>
</g>
</svg>
