<?xml version="1.0" encoding="utf-8"?>
<!-- Generator: Adobe Illustrator 16.0.4, SVG Export Plug-In . SVG Version: 6.00 Build 0)  -->
<!DOCTYPE svg PUBLIC "-//W3C//DTD SVG 1.1//EN" "http://www.w3.org/Graphics/SVG/1.1/DTD/svg11.dtd">
<svg version="1.1" id="Layer_1" xmlns="http://www.w3.org/2000/svg" xmlns:xlink="http://www.w3.org/1999/xlink" x="0px" y="0px"
	 width="2000px" height="2000px" viewBox="0 0 2000 2000" enable-background="new 0 0 2000 2000" xml:space="preserve">
<path fill="#EDAB5D" stroke="#000000" stroke-miterlimit="10" d="M1311.498,1623.73c0,0,243.377-41.852,330.386-290.877
	s6.001-510.051,0-681.068s-27.933-405.041,40.039-507.051s226.987-108.011,262.991-81.008c25.963,19.472,42.004,57.006,0,78.008
	s-145.941,17.413-183.341,73.512c-66.006,99.01-29.681,376.955-11.679,475.754s84.008,416.831-18.002,674.856
	s-384.865,354.035-384.865,354.035l-131.852-30.271l100.93-77.255"/>
<path fill="#F7EADF" stroke="#000000" stroke-miterlimit="10" d="M1681.923,144.734c67.972-102.01,226.987-108.011,262.991-81.008
	c25.963,19.472,42.004,57.006,0,78.008s-145.941,17.413-183.341,73.512l-5.68-43.07l-57.006,43.07l24.003-82.622L1681.923,144.734z"
	/>
<path fill="#EDAB5D" stroke="#000000" stroke-miterlimit="10" d="M1599.203,139.236c0,0,44.062,246.746-105.748,414.182
	c-149.811,167.435-388.625-196.891-388.625-196.891s27.315-155.605,185.939-217.291
	C1449.393,77.55,1599.203,139.236,1599.203,139.236z"/>
<path fill="#EDAB5D" stroke="#000000" stroke-miterlimit="10" d="M419.875,139.236c0,0-44.062,246.746,105.749,414.182
	c149.81,167.435,388.625-196.891,388.625-196.891s-27.316-155.605-185.94-217.291C569.685,77.55,419.875,139.236,419.875,139.236z"
	/>
<path fill="#EDAB5D" stroke="#000000" stroke-miterlimit="10" d="M1201.609,1081c0,0,158.227,376.281,122,508.25
	c-56,204-321,226.25-321,226.25H1000c0,0-265-22.25-321-226.25c-36.227-131.969,122-508.125,122-508.125"/>
<polyline fill="#F7EADF" stroke="#000000" stroke-miterlimit="10" points="1171.555,1107.5 1219.305,1227.24 1195.18,1234.328 
	1219.055,1293.5 1195.055,1293.5 1209.277,1416.486 1159.5,1374.155 1159.5,1453.5 1141.055,1453.5 1153.277,1475.821 
	1097.5,1455.681 1097.5,1546.265 1071.027,1503.237 1059.453,1572.124 1055.048,1598.35 1041.051,1573.723 1002.748,1689.5 
	1001.305,1689.5 963,1573.723 949,1598.492 944.588,1572.194 933,1503.272 906.5,1546.265 906.5,1455.681 850.75,1475.821 
	863,1453.5 844.5,1453.5 844.5,1374.155 794.75,1416.486 809,1293.5 785,1293.5 808.875,1234.328 784.75,1227.316 832.5,1107.538 
	"/>
<path fill="#FFE9F2" stroke="#000000" stroke-miterlimit="10" d="M463,185.25c0,0,182-54.125,292,57.875
	s64.179,107.41,64.179,107.41L699,339.281l18,36.219h-90l46.609,35.5L537,479c0,0-70-76.824-74-153.412S463,185.25,463,185.25z"/>
<path fill="#EDAB5D" stroke="#000000" stroke-miterlimit="10" d="M1002.615,1152.615c0,0,0,0,128.91-13.094
	C1263.68,1126.099,1618,891.152,1618,891.152s-51.751-47.692-163.704-283.228C1319.875,325.112,1055.484,314.5,1002.615,314.5H1003
	c-52.87,0-317.259,10.612-451.681,293.424C439.366,843.46,387.616,891.058,387.616,891.058s354.319,234.994,486.474,248.417
	c128.91,13.094,128.91,13.117,128.91,13.117L1002.615,1152.615z"/>
<path fill="#FFE9F2" stroke="#000000" stroke-miterlimit="10" d="M1544.865,186.25c0,0-182-54.125-292,57.875
	s-64.179,107.41-64.179,107.41l120.179-11.253l-18,36.219h90l-46.609,35.5l136.609,68c0,0,70-76.824,74-153.412
	S1544.865,186.25,1544.865,186.25z"/>
<g>
	<path fill="#F7EADF" stroke="#000000" stroke-miterlimit="10" d="M613.042,1805.8c-49.109-18.416-15.684-101.022,40.593-114.399
		c32.313-7.682,143.922,9.226,154.993,56.277c11.071,47.051-7.38,50.741-33.212,58.122S642.565,1816.871,613.042,1805.8z"/>
	<path fill="#F7EADF" stroke="#000000" stroke-miterlimit="10" d="M754.042,1822.8c-49.109-18.416-15.684-101.022,40.593-114.399
		c32.313-7.682,143.922,9.226,154.993,56.277c11.071,47.051-7.38,50.741-33.212,58.122S783.565,1833.871,754.042,1822.8z"/>
</g>
<g>
	<defs>
		<path id="SVGID_1_" d="M1083.324,761.153c0,0,23.344-111.092,96.322-125.249c72.977-14.157,167.381,27.059,167.381,27.059
			s-46.562,102.204-114.724,111.201C1164.142,783.159,1083.324,761.153,1083.324,761.153z"/>
	</defs>
	<use xlink:href="#SVGID_1_"  overflow="visible" fill="#FFFFFF"/>
	<clipPath id="SVGID_2_">
		<use xlink:href="#SVGID_1_"  overflow="visible"/>
	</clipPath>
	
		<circle clip-path="url(#SVGID_2_)" fill="#FFD150" stroke="#000000" stroke-miterlimit="10" cx="1202.794" cy="702.863" r="79.923"/>
	<use xlink:href="#SVGID_1_"  overflow="visible" fill="none" stroke="#000000" stroke-miterlimit="10"/>
</g>
<g>
	<defs>
		<path id="SVGID_3_" d="M928.027,761.153c0,0-23.344-111.092-96.322-125.249c-72.977-14.157-167.381,27.059-167.381,27.059
			s46.562,102.204,114.724,111.201C847.21,783.159,928.027,761.153,928.027,761.153z"/>
	</defs>
	<use xlink:href="#SVGID_3_"  overflow="visible" fill="#FFFFFF"/>
	<clipPath id="SVGID_4_">
		<use xlink:href="#SVGID_3_"  overflow="visible"/>
	</clipPath>
	
		<circle clip-path="url(#SVGID_4_)" fill="#FFD150" stroke="#000000" stroke-miterlimit="10" cx="808.557" cy="702.863" r="79.923"/>
	<use xlink:href="#SVGID_3_"  overflow="visible" fill="none" stroke="#000000" stroke-miterlimit="10"/>
</g>
<ellipse fill="#4D4D4D" stroke="#000000" stroke-miterlimit="10" cx="829.549" cy="705.207" rx="33.373" ry="64.248"/>
<ellipse fill="#4D4D4D" stroke="#000000" stroke-miterlimit="10" cx="1219.549" cy="704.207" rx="33.373" ry="64.248"/>
<ellipse fill="#FFFFFF" cx="794.394" cy="665.479" rx="35.155" ry="25.521"/>
<ellipse fill="#FFFFFF" cx="1193.394" cy="665.479" rx="35.155" ry="25.521"/>
<path fill="#BC5780" d="M1001.696,932.875c0,0,0,0,14-1.875s76-41.937,60.973-55.937S1001.696,883,1001.696,883H1003
	c0,0-59.945-21.937-74.973-7.937S975,929.156,989,931.031s14,1.859,14,1.859"/>
<g>
	<path fill="#F7EADF" stroke="#000000" stroke-miterlimit="10" d="M1386.092,1807.8c49.109-18.416,15.684-101.022-40.593-114.399
		c-32.313-7.682-143.922,9.226-154.993,56.277c-11.07,47.051,7.381,50.741,33.213,58.122S1356.57,1818.871,1386.092,1807.8z"/>
	<path fill="#F7EADF" stroke="#000000" stroke-miterlimit="10" d="M1245.092,1824.8c49.109-18.416,15.684-101.022-40.593-114.399
		c-32.313-7.682-143.922,9.226-154.993,56.277c-11.07,47.051,7.381,50.741,33.213,58.122S1215.57,1835.871,1245.092,1824.8z"/>
</g>
</svg>
