<?xml version="1.0" encoding="utf-8"?>
<!-- Generator: Adobe Illustrator 16.0.4, SVG Export Plug-In . SVG Version: 6.00 Build 0)  -->
<!DOCTYPE svg PUBLIC "-//W3C//DTD SVG 1.1//EN" "http://www.w3.org/Graphics/SVG/1.1/DTD/svg11.dtd">
<svg version="1.1" id="Layer_1" xmlns="http://www.w3.org/2000/svg" xmlns:xlink="http://www.w3.org/1999/xlink" x="0px" y="0px"
	 width="2000px" height="2000px" viewBox="0 0 2000 2000" enable-background="new 0 0 2000 2000" xml:space="preserve">
<polyline fill="#F7EADF" stroke="#000000" stroke-miterlimit="10" points="1260.1,1471.066 1289.043,1397.634 1296.09,1408.07 
	1317.252,1396.096 1310.059,1426.069 1327.024,1414.741 1333.074,1427.569 1357.477,1423.133 1354.888,1431.115 1363.196,1427.877 
	1348.994,1450.737 1376.102,1459.532 1360.377,1487.253 1378.383,1478.856 1385.602,1483.346 1373.752,1502.565 1390.893,1509.472 
	1405.5,1507.065 1373.043,1540.812 1378.397,1549.454 1369.871,1548.87 1347.586,1547.27 1356.65,1563.164 1329.538,1554.367 
	1327.615,1581.197 1322.793,1573.684 1320.193,1581.692 1296.225,1573.915 1301.581,1600.208 1266.698,1582.007 1263.236,1592.673 
	1249.074,1576.35 1243.548,1586.406 1214.617,1553.563 "/>
<polygon fill="#FFE9F2" stroke="#000000" stroke-miterlimit="10" points="1153.604,601.11 1260.1,701.605 1227.102,506.615 "/>
<polygon fill="#FFE9F2" stroke="#000000" stroke-miterlimit="10" points="844.099,601.11 737.604,701.605 770.602,506.615 "/>
<path fill="#C69C6D" stroke="#000000" stroke-miterlimit="10" d="M1001.193,1027.212c153.726,0,256.407,209.19,277.636,371.523
	c18.995,145.24-124.618,237.765-278.344,237.765h-0.97c-153.726,0-297.338-92.524-278.344-237.766
	c21.229-162.332,123.911-371.473,277.636-371.473L1001.193,1027.212z"/>
<polyline fill="#F7EADF" stroke="#000000" stroke-miterlimit="10" points="1134.443,1140.03 1172.305,1234.973 1153.176,1240.588 
	1172.106,1287.5 1153.077,1287.5 1164.16,1385.021 1124.5,1351.462 1124.5,1414.5 1110.26,1414.5 1119.838,1432.136 
	1075.5,1416.104 1075.5,1487.929 1054.623,1453.812 1045.501,1508.433 1042.036,1529.227 1030.953,1509.7 1000.597,1601.5 
	999.452,1601.5 969.08,1509.7 957.979,1529.34 954.481,1508.488 945.402,1453.84 924.5,1487.929 924.5,1416.104 880.186,1432.136 
	889.79,1414.5 875.5,1414.5 875.5,1351.462 835.864,1385.021 846.973,1287.5 827.943,1287.5 846.874,1240.588 827.745,1235.03 
	865.606,1140.06 "/>
<path fill="#C69C6D" stroke="#000000" stroke-miterlimit="10" d="M1001.532,554.212c197.484,0,329.395,209.19,356.666,371.523
	c24.401,145.24-160.092,237.765-357.575,237.765h-1.246c-197.483,0-381.977-92.524-357.575-237.765
	c27.272-162.333,159.183-371.474,356.666-371.474L1001.532,554.212z"/>
<path fill="#C69C6D" stroke="#000000" stroke-miterlimit="10" d="M920.594,584.611c0,0-80.117-123.076-179.292-116.954
	c-99.175,6.122-250.185,191.823-237.94,238.758c12.244,46.936,56.21,96.755,80.876,111.737
	C785,940.093,776.602,532.114,776.602,532.114s23.698,3.512,31.86,62.692c8.163,59.179-2.041,74.893-2.041,74.893"/>
<path fill="#C69C6D" stroke="#000000" stroke-miterlimit="10" d="M1097.586,587.611c0,0,59.191-126.076,158.366-119.953
	c99.175,6.122,250.185,191.823,237.94,238.758s-56.211,96.755-80.877,111.737c-200.762,121.94-192.363-286.04-192.363-286.04
	s-23.697,3.512-31.859,62.692c-8.163,59.179,2.04,74.893,2.04,74.893"/>
<path fill="#F7EADF" stroke="#000000" stroke-miterlimit="10" d="M1007.532,545.667C967.188,542.74,918.274,558.347,868,585
	c-73.674,39.059-84,120-84,120l59.969-51.719c0,0,15.382,30.537,14.711,37.593C857.359,704.748,836,737,836,737
	s43.544-26.603,55.333-40.667c9.21-10.988,28.667-59.54,28.667-59.54s8,26.873,0.667,52.206c-3.405,11.762-18.491,48-18.491,48
	s28.904-15.576,37.158-22.667C946.602,708.09,964,685,964,685s6.521,16.715,7.333,22c1.187,7.715,0.667,30,0.667,30
	s16.844-17.587,20-24.667c3.531-7.921,6.75-35.333,6.75-35.333s16.888,12.04,20.583,16.667c3.492,4.373,8.167,19.333,8.167,19.333
	s7.167-19.667,7.167-26c0-6.667-7.167-26-7.167-26s53.35,9.868,65.833,15.333C1105.975,681.868,1128,705,1128,705s2.241-24.7-2-34
	c-3.734-8.188-29.902-35.948-29.902-35.948S1139.957,636.61,1152,645c13.059,9.098,44.5,60,44.5,60s22.447-60.344,0-80.357
	c-20.513-18.289-29.719-27.129-76.5-51.643C1090.255,557.414,1040.438,548.054,1007.532,545.667z"/>
<path fill="#BC5780" d="M999.348,1089.875c0,0,0,0,14-1.875c14-1.875,76-41.938,60.973-55.938S999.348,1040,999.348,1040h1.304
	c0,0-59.945-21.938-74.973-7.938s46.973,54.094,60.973,55.969s14,1.859,14,1.859"/>
<ellipse transform="matrix(0.975 -0.2221 0.2221 0.975 -178.2523 213.734)" cx="861.397" cy="899.595" rx="42.299" ry="49.497"/>
<ellipse transform="matrix(-0.975 -0.2221 0.2221 -0.975 2058.4939 2030.6248)" cx="1143.397" cy="899.595" rx="42.299" ry="49.497"/>
<g>
	<g>
		<path fill="#F7EADF" stroke="#000000" stroke-miterlimit="10" d="M800.509,1641.531c-25.324-9.497-8.088-52.095,20.933-58.992
			c16.663-3.962,74.216,4.757,79.925,29.02c5.708,24.264-3.806,26.166-17.127,29.973
			C870.918,1645.337,815.732,1647.24,800.509,1641.531z"/>
		<path fill="#F7EADF" stroke="#000000" stroke-miterlimit="10" d="M873.218,1650.297c-25.324-9.496-8.087-52.094,20.933-58.992
			c16.663-3.961,74.216,4.758,79.925,29.021s-3.806,26.166-17.126,29.972C943.628,1654.104,888.441,1656.006,873.218,1650.297z"/>
	</g>
	<g>
		<path fill="#F7EADF" stroke="#000000" stroke-miterlimit="10" d="M1199.146,1642.562c25.324-9.497,8.087-52.095-20.933-58.992
			c-16.663-3.961-74.216,4.757-79.925,29.021c-5.709,24.263,3.806,26.165,17.127,29.972
			C1128.735,1646.368,1183.922,1648.271,1199.146,1642.562z"/>
		<path fill="#F7EADF" stroke="#000000" stroke-miterlimit="10" d="M1126.436,1651.328c25.324-9.496,8.088-52.094-20.932-58.992
			c-16.663-3.961-74.216,4.758-79.926,29.021c-5.708,24.263,3.807,26.166,17.127,29.972
			C1056.026,1655.135,1111.213,1657.037,1126.436,1651.328z"/>
	</g>
</g>
</svg>
