<?xml version="1.0" encoding="utf-8"?>
<!-- Generator: Adobe Illustrator 16.0.4, SVG Export Plug-In . SVG Version: 6.00 Build 0)  -->
<!DOCTYPE svg PUBLIC "-//W3C//DTD SVG 1.1//EN" "http://www.w3.org/Graphics/SVG/1.1/DTD/svg11.dtd">
<svg version="1.1" id="Layer_1" xmlns="http://www.w3.org/2000/svg" xmlns:xlink="http://www.w3.org/1999/xlink" x="0px" y="0px"
	 width="500px" height="500px" viewBox="0 0 500 500" enable-background="new 0 0 500 500" xml:space="preserve">
<polyline fill="#F7EADF" stroke="#000000" stroke-miterlimit="10" points="333.021,389.035 342.749,364.355 345.116,367.862 
	352.229,363.838 349.812,373.912 355.514,370.104 357.547,374.416 365.748,372.924 364.878,375.607 367.671,374.52 362.897,382.201 
	372.008,385.158 366.723,394.475 372.774,391.652 375.201,393.162 371.219,399.62 376.979,401.942 381.888,401.133 370.979,412.475 
	372.779,415.38 369.914,415.183 362.424,414.646 365.47,419.986 356.358,417.03 355.712,426.048 354.092,423.522 353.218,426.215 
	345.162,423.6 346.962,432.438 335.239,426.32 334.075,429.904 329.315,424.418 327.459,427.798 317.735,416.76 "/>
<polygon fill="#FFE9F2" stroke="#000000" stroke-miterlimit="10" points="297.229,96.656 333.021,130.431 321.932,64.897 "/>
<polygon fill="#FFE9F2" stroke="#000000" stroke-miterlimit="10" points="193.209,96.656 157.418,130.431 168.509,64.897 "/>
<path fill="#C69C6D" stroke="#000000" stroke-miterlimit="10" d="M246.006,239.862c51.666,0,86.175,70.738,93.309,125.296
	c6.386,48.812-41.883,80.342-93.547,80.342h-0.326c-51.665,0-99.931-31.529-93.547-80.342
	c7.135-54.559,41.645-125.063,93.31-125.063L246.006,239.862z"/>
<polyline fill="#F7EADF" stroke="#000000" stroke-miterlimit="10" points="290.79,277.778 303.515,309.687 297.086,311.654 
	303.447,327.5 297.053,327.5 300.803,360.195 287.5,348.838 287.5,370.5 282.662,370.5 285.641,376.188 270.5,370.562 
	270.5,394.702 263.723,383.236 260.779,401.593 259.674,408.582 255.979,402.334 245.806,433.5 245.422,433.5 235.213,402.334 
	231.483,408.775 230.307,401.69 227.391,383.283 220.5,394.702 220.5,370.562 205.472,376.188 208.566,370.5 203.5,370.5 
	203.5,348.838 190.311,360.195 194.176,327.5 187.78,327.5 194.143,311.654 187.713,309.747 200.438,277.808 "/>
<path fill="#C69C6D" stroke="#000000" stroke-miterlimit="10" d="M246.12,80.894c66.373,0,110.704,70.222,119.871,124.78
	c8.2,48.814-53.804,79.826-120.176,79.826h-0.419c-66.372,0-128.377-31.012-120.176-79.826
	c9.166-54.558,53.499-124.805,119.87-124.805L246.12,80.894z"/>
<path fill="#C69C6D" stroke="#000000" stroke-miterlimit="10" d="M218.918,91.111c0,0-26.926-41.364-60.257-39.307
	c-33.331,2.057-84.083,64.469-79.968,80.243c4.115,15.774,18.891,32.518,27.181,37.553c67.474,40.982,64.651-96.133,64.651-96.133
	s7.964,1.18,10.708,21.07c2.743,19.889-0.686,25.169-0.686,25.169"/>
<path fill="#C69C6D" stroke="#000000" stroke-miterlimit="10" d="M278.403,92.119c0,0,19.893-42.373,53.224-40.315
	c33.332,2.057,84.084,64.469,79.968,80.243c-4.114,15.774-18.891,32.518-27.181,37.553c-67.473,40.982-64.65-96.133-64.65-96.133
	s-7.964,1.18-10.707,21.07c-2.744,19.889,0.686,25.169,0.686,25.169"/>
<path fill="#F7EADF" stroke="#000000" stroke-miterlimit="10" d="M248.137,78.022c-13.559-0.983-29.998,4.262-46.894,13.219
	c-24.761,13.127-28.231,40.33-28.231,40.33l20.155-17.382c0,0,5.169,10.263,4.944,12.635c-0.444,4.663-7.622,15.502-7.622,15.502
	s14.635-8.941,18.596-13.667c3.097-3.693,9.635-20.011,9.635-20.011s2.688,9.031,0.224,17.545
	c-1.144,3.953-6.214,16.132-6.214,16.132s9.714-5.235,12.488-7.618c2.442-2.098,8.291-9.858,8.291-9.858s2.191,5.618,2.464,7.394
	c0.398,2.593,0.223,10.083,0.223,10.083s5.662-5.911,6.723-8.29c1.187-2.662,2.269-11.875,2.269-11.875s5.675,4.046,6.917,5.602
	c1.174,1.469,2.744,6.498,2.744,6.498s2.409-6.61,2.409-8.738c0-2.241-2.409-8.738-2.409-8.738s17.93,3.317,22.126,5.153
	c4.249,1.86,11.65,9.634,11.65,9.634s0.754-8.301-0.671-11.427c-1.256-2.751-10.051-12.082-10.051-12.082s14.74,0.524,18.789,3.343
	c4.388,3.058,14.955,20.165,14.955,20.165s7.544-20.281,0-27.007c-6.895-6.146-9.988-9.117-25.71-17.356
	C275.938,81.97,259.196,78.824,248.137,78.022z"/>
<path fill="#BC5780" d="M245.386,260.923c0,0,0,0,4.705-0.631c4.706-0.631,25.542-14.173,20.492-18.881
	c-5.05-4.704-25.197,2.589-25.197,2.589h0.439c0,0-20.147-7.293-25.197-2.589c-5.051,4.708,15.787,18.222,20.492,18.853
	c4.705,0.629,4.705,0.644,4.705,0.644"/>
<ellipse transform="matrix(0.975 -0.2221 0.2221 0.975 -38.7698 49.1117)" cx="199.023" cy="196.972" rx="14.216" ry="16.635"/>
<ellipse transform="matrix(-0.975 -0.2221 0.2221 -0.975 536.524 454.2664)" cx="293.799" cy="196.972" rx="14.216" ry="16.635"/>
<g>
	<g>
		<path fill="#F7EADF" stroke="#000000" stroke-miterlimit="10" d="M178.56,446.325c-8.511-3.191-2.719-17.509,7.035-19.826
			c5.601-1.332,24.943,1.599,26.861,9.753c1.919,8.154-1.279,8.794-5.756,10.073C202.224,447.605,183.677,448.244,178.56,446.325z"
			/>
		<path fill="#F7EADF" stroke="#000000" stroke-miterlimit="10" d="M202.997,449.271c-8.511-3.19-2.718-17.508,7.035-19.825
			c5.601-1.332,24.943,1.599,26.862,9.753c1.918,8.154-1.28,8.794-5.757,10.072C226.66,450.551,208.112,451.189,202.997,449.271z"/>
	</g>
	<g>
		<path fill="#F7EADF" stroke="#000000" stroke-miterlimit="10" d="M312.535,446.672c8.512-3.191,2.718-17.508-7.035-19.826
			c-5.601-1.332-24.943,1.598-26.861,9.753c-1.919,8.154,1.279,8.793,5.756,10.073C288.872,447.951,307.419,448.591,312.535,446.672
			z"/>
		<path fill="#F7EADF" stroke="#000000" stroke-miterlimit="10" d="M288.098,449.618c8.512-3.191,2.72-17.509-7.034-19.827
			c-5.6-1.331-24.942,1.6-26.861,9.754c-1.917,8.154,1.279,8.795,5.756,10.073C264.435,450.897,282.982,451.537,288.098,449.618z"/>
	</g>
</g>
</svg>
