<?xml version="1.0" encoding="utf-8"?>
<!-- Generator: Adobe Illustrator 16.0.4, SVG Export Plug-In . SVG Version: 6.00 Build 0)  -->
<!DOCTYPE svg PUBLIC "-//W3C//DTD SVG 1.1//EN" "http://www.w3.org/Graphics/SVG/1.1/DTD/svg11.dtd">
<svg version="1.1" id="Layer_1" xmlns="http://www.w3.org/2000/svg" xmlns:xlink="http://www.w3.org/1999/xlink" x="0px" y="0px"
	 width="2000px" height="2000px" viewBox="0 0 2000 2000" enable-background="new 0 0 2000 2000" xml:space="preserve">
<polyline fill="#F7EADF" stroke="#000000" stroke-miterlimit="10" points="1325.735,1557.113 1365.063,1457.335 1374.638,1471.516 
	1403.393,1455.244 1393.618,1495.973 1416.672,1480.58 1424.893,1498.011 1458.049,1491.981 1454.531,1502.828 1465.821,1498.429 
	1446.523,1529.49 1483.355,1541.44 1461.99,1579.107 1486.455,1567.698 1496.265,1573.798 1480.163,1599.913 1503.454,1609.298 
	1523.302,1606.027 1479.2,1651.881 1486.476,1663.625 1474.89,1662.831 1444.609,1660.656 1456.926,1682.253 1420.087,1670.3 
	1417.474,1706.756 1410.922,1696.547 1407.39,1707.429 1374.821,1696.861 1382.1,1732.587 1334.701,1707.855 1329.998,1722.349 
	1310.755,1700.169 1303.246,1713.834 1263.936,1669.208 "/>
<polygon fill="#FFE9F2" stroke="#000000" stroke-miterlimit="10" points="1181.033,375.04 1325.735,511.59 1280.898,246.642 "/>
<polygon fill="#FFE9F2" stroke="#000000" stroke-miterlimit="10" points="760.484,375.04 615.782,511.59 660.619,246.642 "/>
<path fill="#C69C6D" stroke="#000000" stroke-miterlimit="10" d="M973.94,954.016c208.879,0,348.399,284.041,377.244,504.615
	c25.811,197.35-169.328,322.869-378.206,322.869h-1.318c-208.878,0-404.016-125.52-378.207-322.869
	c28.847-220.574,168.368-504.647,377.245-504.647L973.94,954.016z"/>
<polyline fill="#F7EADF" stroke="#000000" stroke-miterlimit="10" points="1154.997,1107.31 1206.442,1236.314 1180.45,1243.851 
	1206.173,1307.5 1180.316,1307.5 1195.383,1440.104 1141.5,1394.598 1141.5,1480.5 1122.137,1480.5 1134.947,1504.338 
	1074.5,1482.431 1074.5,1580.025 1046.336,1533.667 1034.043,1607.886 1029.387,1636.14 1014.353,1609.686 973.13,1734.5 
	971.575,1734.5 930.306,1609.686 915.223,1636.334 910.47,1607.98 898.018,1533.717 869.5,1580.025 869.5,1482.431 
	809.403,1504.338 822.568,1480.5 802.5,1480.5 802.5,1394.598 748.97,1440.104 764.391,1307.5 738.533,1307.5 764.256,1243.851 
	738.264,1236.347 789.709,1107.327 "/>
<path fill="#C69C6D" stroke="#000000" stroke-miterlimit="10" d="M974.4,311.315c268.338,0,447.573,284.392,484.63,504.966
	c33.155,197.348-217.528,323.218-485.864,323.218h-1.693c-268.335,0-519.02-125.87-485.864-323.219
	c37.057-220.574,216.293-504.824,484.628-504.824L974.4,311.315z"/>
<path fill="#C69C6D" stroke="#000000" stroke-miterlimit="10" d="M864.425,352.621c0,0-108.861-167.232-243.618-158.914
	C486.05,202.026,280.862,454.352,297.5,518.126c16.637,63.774,76.377,131.468,109.893,151.826
	c272.79,165.688,261.378-388.663,261.378-388.663s32.2,4.772,43.29,85.184c11.091,80.411-2.772,101.762-2.772,101.762"/>
<path fill="#C69C6D" stroke="#000000" stroke-miterlimit="10" d="M1104.916,356.697c0,0,80.429-171.308,215.185-162.989
	c134.756,8.318,339.944,260.644,323.307,324.419c-16.638,63.774-76.378,131.468-109.894,151.826
	c-272.79,165.688-261.378-388.663-261.378-388.663s-32.199,4.772-43.29,85.184c-11.092,80.411,2.772,101.762,2.772,101.762"/>
<path fill="#F7EADF" stroke="#000000" stroke-miterlimit="10" d="M982.554,299.705c-54.818-3.977-121.281,17.229-189.593,53.445
	c-100.106,53.071-114.137,163.053-114.137,163.053l81.484-70.274c0,0,20.901,41.494,19.989,51.081
	c-1.794,18.852-30.816,62.675-30.816,62.675s59.167-36.147,75.186-55.256c12.515-14.93,38.951-80.901,38.951-80.901
	s10.87,36.515,0.905,70.937c-4.626,15.981-25.125,65.221-25.125,65.221s39.274-21.165,50.49-30.799
	c9.875-8.483,33.516-39.857,33.516-39.857s8.86,22.711,9.965,29.893c1.613,10.483,0.905,40.763,0.905,40.763
	s22.887-23.897,27.176-33.516c4.798-10.763,9.172-48.01,9.172-48.01s22.946,16.359,27.967,22.646
	c4.745,5.942,11.098,26.269,11.098,26.269s9.738-26.723,9.738-35.328c0-9.059-9.738-35.328-9.738-35.328s72.49,13.409,89.451,20.835
	c17.179,7.52,47.105,38.951,47.105,38.951s3.045-33.562-2.717-46.198c-5.075-11.125-40.631-48.846-40.631-48.846
	s59.595,2.118,75.958,13.518c17.744,12.361,60.466,81.526,60.466,81.526s30.501-81.993,0-109.188
	c-27.872-24.851-40.381-36.863-103.946-70.17C1094.955,315.666,1027.265,302.948,982.554,299.705z"/>
<path fill="#BC5780" d="M971.434,1039.16c0,0,0,0,19.021-2.547c19.023-2.549,103.268-57.18,82.849-76.203
	c-20.419-19.021-101.87,10.59-101.87,10.59h1.771c0,0-81.453-29.611-101.871-10.59c-20.419,19.023,63.825,73.6,82.849,76.147
	c19.022,2.548,19.022,2.575,19.022,2.575"/>
<ellipse transform="matrix(0.975 -0.2221 0.2221 0.975 -153.7646 193.575)" cx="783.989" cy="780.613" rx="57.475" ry="67.256"/>
<ellipse transform="matrix(-0.975 -0.2221 0.2221 -0.975 2131.8496 1800.9114)" cx="1167.164" cy="780.613" rx="57.474" ry="67.256"/>
<g>
	<g>
		<path fill="#F7EADF" stroke="#000000" stroke-miterlimit="10" d="M701.255,1788.736c-34.409-12.904-10.989-70.784,28.443-80.157
			c22.64-5.383,100.842,6.464,108.599,39.432c7.757,32.969-5.171,35.554-23.271,40.726S721.941,1796.493,701.255,1788.736z"/>
		<path fill="#F7EADF" stroke="#000000" stroke-miterlimit="10" d="M800.051,1800.646c-34.41-12.903-10.989-70.783,28.442-80.156
			c22.641-5.383,100.843,6.465,108.6,39.432c7.757,32.968-5.171,35.554-23.271,40.725
			C895.722,1805.819,820.736,1808.404,800.051,1800.646z"/>
	</g>
	<g>
		<path fill="#F7EADF" stroke="#000000" stroke-miterlimit="10" d="M1242.913,1790.138c34.409-12.905,10.988-70.784-28.443-80.157
			c-22.642-5.383-100.842,6.463-108.599,39.433c-7.758,32.968,5.171,35.552,23.271,40.725
			C1147.241,1795.309,1222.227,1797.895,1242.913,1790.138z"/>
		<path fill="#F7EADF" stroke="#000000" stroke-miterlimit="10" d="M1144.116,1802.048c34.41-12.902,10.99-70.783-28.441-80.157
			c-22.641-5.381-100.842,6.466-108.601,39.433c-7.756,32.968,5.172,35.554,23.271,40.725
			C1048.446,1807.221,1123.432,1809.805,1144.116,1802.048z"/>
	</g>
</g>
</svg>
