<?xml version="1.0" encoding="utf-8"?>
<!-- Generator: Adobe Illustrator 16.0.4, SVG Export Plug-In . SVG Version: 6.00 Build 0)  -->
<!DOCTYPE svg PUBLIC "-//W3C//DTD SVG 1.1//EN" "http://www.w3.org/Graphics/SVG/1.1/DTD/svg11.dtd">
<svg version="1.1" id="Layer_1" xmlns="http://www.w3.org/2000/svg" xmlns:xlink="http://www.w3.org/1999/xlink" x="0px" y="0px"
	 width="500px" height="500px" viewBox="0 0 500 500" enable-background="new 0 0 500 500" xml:space="preserve">
<g>
	<polyline stroke="#000000" stroke-miterlimit="10" points="113.151,297 144.134,314.37 137.296,325.179 107.379,307 
		113.151,298.333 	"/>
	<polygon stroke="#000000" stroke-miterlimit="10" points="103.002,314.37 117.668,292 111.151,287.57 96.271,309.666 	"/>
	<polygon stroke="#000000" stroke-miterlimit="10" points="137.002,334.37 151.668,312 145.151,307.57 130.271,329.666 	"/>
</g>
<path fill="#CCCCCC" stroke="#000000" stroke-miterlimit="10" d="M182.936,264.975c0,0-12.082-11.42-13.433-25.64
	c-1.351-14.22,0.578-79.816,30.882-113.618c30.305-33.801,40.137-35.216,40.137-35.216s-10.455-6.231-16.5-2.915
	s-8.418,7.346-8.418,7.346s-3.722-4.147-2.57-9.283c0.958-4.281,1.702-5.625,5.153-9.652c0,0-9.734,0.269-12.449,7.095
	c-2.201,5.534-1.765,7.072-1.765,7.072s-5.634-1.45-6.795-7.336c-0.942-4.772,2.438-9.976,2.438-9.976s-9.17,2.541-11.193,12.09
	c-1.677,7.918,1,13.044,1,13.044s-10.031-4.285-11.68-12.04c-1.649-7.756,1.817-10.519,1.817-10.519s-12.596,8.579-11.835,17.94
	c0.609,7.499,1.037,10.701,1.037,10.701s-6.537,0.63-11.138-7.511c-3.094-5.473-1.405-11.776-1.405-11.776
	s-9.653,5.219-8.295,21.353c0.718,8.544,2.899,12.05,2.899,12.05s-9.119-2.44-11.39-12.271c-2.272-9.831-1.229-10.546-1.229-10.546
	s-11.202,12.123-6.119,27.223c0.951,2.825,3.485,6.858,3.485,6.858s-19.907-10.251-25.045-18.909
	c-1.603-2.701-6.01-14.766-6.01-14.766s-7.277,19.786,10.341,40.697c17.618,20.91-10.677-4.147-10.677-4.147
	s-1.857,20.017,8.807,32.764c10.663,12.747,19.757,25.336,19.757,25.336l-16.203-11.079c0,0,2.384,26.354,20.176,45.281
	c17.792,18.926,31.976,44.506,31.976,44.506"/>
<path fill="#CCCCCC" stroke="#000000" stroke-miterlimit="10" d="M228.824,342.389c0,0,44.281-3.332,76.852-25.178
	c18.529-12.428,30.768-50.324,38.523-86.168c6.405-29.604,24.438-55.371,55.152-59.916c30.714-4.545,52.022,33.618,48.914,38.799
	c-3.107,5.181-8.672,1.023-12.079-4.398c-3.406-5.421-17.767-25.103-34.549-23.571c-19.084,1.741-36.934,24.37-42.973,41.393
	c-10.389,29.285-15.086,83.645-48.075,103.716c-40.492,24.635-81.737,23.882-81.737,23.882L228.824,342.389z"/>
<path fill="#CCCCCC" stroke="#000000" stroke-miterlimit="10" d="M159.291,353.002c0,0-28.482,1.808-31.198,12.999
	c-1.638,6.749,3.082,7.823,5.412,8.666c2.996,1.083,38.144-9.337,38.144-9.337L159.291,353.002z"/>
<path fill="#CCCCCC" stroke="#000000" stroke-miterlimit="10" d="M153.286,276.279c0,0-9.286,70.372,9.714,85.644
	c19,15.272,29,11.74,41.137,7.281c14.387-5.286,19.884-15.871,19.863-34.006c-0.02-17.49-36.387-70.722-36.387-70.722
	L153.286,276.279z"/>
<path fill="#CCCCCC" stroke="#000000" stroke-miterlimit="10" d="M141.375,207.649c-7.333-4.865-9.736-22.07-3.522-44.678
	c5.25-19.1,32.385-44.475,58.621-28.936c26.235,15.54,22.833,43.039,14.962,54.314C203.564,199.624,161.083,220.723,141.375,207.649
	z"/>
<path fill="#CCCCCC" stroke="#000000" stroke-miterlimit="10" d="M102.158,274.586c-8.511-8.633-9.518-60.15,27.324-79.699
	s64.163-11.278,73.938,1.504s18.543,69.925-50.133,80.451C129.493,280.489,108.895,281.42,102.158,274.586z"/>
<g>
	<defs>
		<path id="SVGID_1_" d="M125.722,239.248c0,0,0.607-12.946,8.574-15.872s19.358,0,19.358,0S150.269,235.744,142.75,238
			S125.722,239.248,125.722,239.248z"/>
	</defs>
	<use xlink:href="#SVGID_1_"  overflow="visible" fill="#FFFFFF"/>
	<clipPath id="SVGID_2_">
		<use xlink:href="#SVGID_1_"  overflow="visible"/>
	</clipPath>
	<circle clip-path="url(#SVGID_2_)" fill="#5DBFC1" stroke="#000000" stroke-miterlimit="10" cx="138.125" cy="230.501" r="9.125"/>
	<use xlink:href="#SVGID_1_"  overflow="visible" fill="none" stroke="#000000" stroke-miterlimit="10"/>
</g>
<path fill="#BC5780" stroke="#000000" stroke-miterlimit="10" d="M98.606,266.786c0,0,0.894-2.036,6.144-2.286s5.75,1.5,5.25,4
	s-5.621,7.789-5.621,7.789s-1.979-0.752-3.107-2.803S98.606,266.786,98.606,266.786z"/>
<path fill="#FFF3F8" stroke="#000000" stroke-miterlimit="10" d="M162,361.923c-6.197-6.842-15-30.923,0-36.923
	s62.913,22.424,54.441,35.055c-4.71,7.022-11.44,12.977-29.488,12.977C176.607,373.031,166.584,366.983,162,361.923z"/>
<path fill="#CCCCCC" stroke="#000000" stroke-miterlimit="10" d="M152.148,287.316c0,0-27.239,10.018-28.239,17.684
	s-0.346,8,1.933,10s6.81,1.667,8.514-2s1.583-8,1.583-8l15.561-2.393L152.148,287.316z"/>
<g>
	<polyline stroke="#000000" stroke-miterlimit="10" points="150.043,293.324 174.07,319.484 164.205,327.624 141.442,301.027 
		149.627,294.591 	"/>
	<polygon stroke="#000000" stroke-miterlimit="10" points="134.986,306.667 155.894,289.981 151.081,283.741 130.057,300.1 	"/>
	<polygon stroke="#000000" stroke-miterlimit="10" points="161.061,336.266 181.968,319.58 177.156,313.34 156.131,329.698 	"/>
</g>
<path fill="#CCCCCC" stroke="#000000" stroke-miterlimit="10" d="M169.713,291.666c0,0-14.667,7.503-16.461,14.334
	c-1.204,4.583-0.745,6.881,2.083,7.333c4.167,0.667,22.007-7.8,25.166-11.566s4.167-13.45,4.167-13.45"/>
<path fill="#CCCCCC" stroke="#000000" stroke-miterlimit="10" d="M196,324.179c0,0-27.468,0.488-25.4,27.155s8.679,28,8.679,28
	s-27.13-2.607-35.778,8.916c-4.172,5.56-2.364,11,1.833,12.417c6.715,2.267,70.023-15.332,71.012-18.666s0-8.97,0-8.97
	s9.481-1.03,14.481-17.03c3.425-10.96,1.174-18-11.632-37.247"/>
<path fill="#CCCCCC" stroke="#000000" stroke-miterlimit="10" d="M192.541,271.971c0,0,17.652,2.229,30.326-6.318
	c12.674-8.547,65.596-54.715,72.946-102.738c7.353-48.023,1.841-57.113,1.841-57.113s12.257,4.409,13.621,11.66
	c1.366,7.251-0.353,11.952-0.353,11.952s5.958,0.26,9.422-4.183c2.888-3.702,3.493-5.23,4.478-10.819c0,0,6.393,8.23,2.593,15.113
	c-3.079,5.581-4.647,6.265-4.647,6.265s5.028,3.672,10.684,0.632c4.585-2.464,6.59-8.795,6.59-8.795s4.131,9.308-2.39,17.469
	c-5.406,6.767-11.463,8.037-11.463,8.037s10.358,5.381,17.891,1.474c7.532-3.907,7.462-8.65,7.462-8.65s1.466,16.243-6.789,21.976
	c-6.613,4.592-9.552,6.414-9.552,6.414s3.921,5.833,13.779,4.105c6.626-1.161,10.69-6.84,10.69-6.84s2.245,11.526-12.017,21.368
	c-7.553,5.211-11.933,5.791-11.933,5.791s8.214,5.881,17.885,1.079c9.672-4.802,9.555-6.151,9.555-6.151s-2.41,17.498-18.35,23.557
	c-2.98,1.134-8.038,1.78-8.038,1.78s22.003,9.492,32.652,7.856c3.322-0.51,16.292-5.065,16.292-5.065s-11.413,19.462-40.673,19.105
	c-29.26-0.356,10.684,6.008,10.684,6.008s-15.287,15.138-33.071,14.983s-34.373,0.883-34.373,0.883l20.17,5.867
	c0,0-23.408,15.938-51.146,14.09c-27.737-1.85-58.523,3.807-58.523,3.807"/>
<path fill="#CCCCCC" stroke="#000000" stroke-miterlimit="10" d="M173.841,212.45c-6.155-7.071-3.755-25.422,9.024-46.886
	c10.796-18.133,45.849-36.519,68.398-13.135c22.55,23.385,11.275,50.667,0,60.021C239.987,221.803,190.383,231.454,173.841,212.45z"
	/>
<path fill="#FFE9F2" stroke="#000000" stroke-miterlimit="10" d="M179.278,196.569c0,0,4.425-27.909,22.47-36.931
	s30.784-6.06,39.055-0.045s18.023,23.287,9.001,36.82s-13.545,12.771-27.079,14.274s-20.306-2.835-20.306-2.835l7.619-10.353H199
	l-0.346-9.38L179.278,196.569z"/>
</svg>
