<?xml version="1.0" encoding="utf-8"?>
<!-- Generator: Adobe Illustrator 16.0.4, SVG Export Plug-In . SVG Version: 6.00 Build 0)  -->
<!DOCTYPE svg PUBLIC "-//W3C//DTD SVG 1.1//EN" "http://www.w3.org/Graphics/SVG/1.1/DTD/svg11.dtd">
<svg version="1.1" id="Layer_1" xmlns="http://www.w3.org/2000/svg" xmlns:xlink="http://www.w3.org/1999/xlink" x="0px" y="0px"
	 width="500px" height="500px" viewBox="0 0 500 500" enable-background="new 0 0 500 500" xml:space="preserve">
<path fill="#F7AD0B" stroke="#F7AD0B" stroke-width="5" stroke-miterlimit="10" d="M247.762,144.5c0,0,24-55.5,63-49.5
	s30.957,17.644,26,24.523C318.762,144.5,247.762,144.5,247.762,144.5z"/>
<path fill="#F7AD0B" stroke="#F7AD0B" stroke-width="5" stroke-miterlimit="10" d="M247,144.5c0,0-24-55.5-63-49.5
	s-30.958,17.644-26,24.523C176,144.5,247,144.5,247,144.5z"/>
<path fill="#ABD8A4" stroke="#FFD150" stroke-width="5" stroke-miterlimit="10" d="M394.5,365.362
	c0,14.646-11.38,26.138-24.798,30.138H129.298c-15.875-4-27.798-15.492-27.798-30.138V201.082c0-14.646,11.923-26.582,26.57-26.582
	h240.404c14.646,0,26.025,11.936,26.025,26.582V365.362z"/>
<path fill="#7ACB71" stroke="#F9BE07" stroke-width="5" stroke-miterlimit="10" d="M405.5,215.5c0,8.284-6.716,15-15,15h-282
	c-8.284,0-15-6.716-15-15v-56c0-8.284,6.716-15,15-15h282c8.284,0,15,6.716,15,15V215.5z"/>
<rect x="223.5" y="144.5" fill="#FFD150" stroke="#FFD150" stroke-width="5" stroke-miterlimit="10" width="47" height="249"/>
<rect x="218.5" y="144.5" fill="#F9BE07" stroke="#F9BE07" stroke-width="5" stroke-miterlimit="10" width="59" height="86"/>
<rect x="235.5" y="124.5" fill="#F7AD0B" stroke="#F7AD0B" stroke-width="5" stroke-miterlimit="10" width="26" height="19"/>
</svg>
