<?xml version="1.0" encoding="utf-8"?>
<!-- Generator: Adobe Illustrator 16.0.4, SVG Export Plug-In . SVG Version: 6.00 Build 0)  -->
<!DOCTYPE svg PUBLIC "-//W3C//DTD SVG 1.1//EN" "http://www.w3.org/Graphics/SVG/1.1/DTD/svg11.dtd">
<svg version="1.1" id="Layer_1" xmlns="http://www.w3.org/2000/svg" xmlns:xlink="http://www.w3.org/1999/xlink" x="0px" y="0px"
	 width="500px" height="500px" viewBox="0 0 500 500" enable-background="new 0 0 500 500" xml:space="preserve">
<circle fill="#FFFF00" stroke="#000000" stroke-width="2" stroke-miterlimit="10" cx="192.707" cy="166.699" r="41.729"/>
<circle fill="#FFFF00" stroke="#000000" stroke-width="2" stroke-miterlimit="10" cx="277.293" cy="179.105" r="30.075"/>
<path fill="#8CC63F" stroke="#000000" stroke-width="2" stroke-miterlimit="10" d="M428,412c0,8.284-6.716,15-15,15H94
	c-8.284,0-15-6.716-15-15V192c0-8.284,6.716-15,15-15h319c8.284,0,15,6.716,15,15V412z"/>
<g>
	<path fill="#8CC63F" d="M418,402c0,8.284-6.716,15-15,15H104c-8.284,0-15-6.716-15-15V202c0-8.284,6.716-15,15-15h299
		c8.284,0,15,6.716,15,15V402z"/>
	<path fill="none" stroke="#000000" stroke-width="2" stroke-miterlimit="10" stroke-dasharray="11.872,11.872" d="M418,402
		c0,8.284-6.716,15-15,15H104c-8.284,0-15-6.716-15-15V202c0-8.284,6.716-15,15-15h299c8.284,0,15,6.716,15,15V402z"/>
</g>
<path fill="#8CC63F" stroke="#000000" stroke-width="2" stroke-miterlimit="10" d="M442,316c0,8.284-6.716,15-15,15h-90
	c-8.284,0-15-6.716-15-15v-27c0-8.284,6.716-15,15-15h90c8.284,0,15,6.716,15,15V316z"/>
<circle fill="#009245" stroke="#000000" stroke-width="2" stroke-miterlimit="10" cx="348.722" cy="302" r="15.038"/>
<circle fill="#FFFF00" stroke="#000000" stroke-width="2" stroke-miterlimit="10" cx="262.459" cy="108.805" r="33.459"/>
</svg>
